<?xml version="1.0" encoding="UTF-8"?>
<svg xmlns="http://www.w3.org/2000/svg" xmlns:xlink="http://www.w3.org/1999/xlink" width="3001" height="3001" viewBox="0 0 3001 3001">
<defs>
<clipPath id="clip-0">
<path clip-rule="nonzero" d="M 636 644 L 2365 644 L 2365 2357 L 636 2357 Z M 636 644 "/>
</clipPath>
<clipPath id="clip-1">
<path clip-rule="nonzero" d="M 1549.980469 1316.980469 C 1515.171875 1254.601562 1574.488281 1158.058594 1617.621094 1133.328125 C 1660.519531 1108.589844 1646.730469 1119.101562 1662.050781 1115.160156 C 1664.898438 1075.101562 1667.75 1035.480469 1670.808594 996.070312 C 1594.410156 965.429688 1521.738281 935.878906 1451.691406 907.640625 C 1451.46875 907.640625 1451.46875 907.640625 1451.46875 907.640625 C 1410.761719 891.441406 1371.351562 875.460938 1332.609375 859.921875 C 1324.511719 868.019531 1334.140625 863.640625 1305.25 882.03125 C 1276.570312 900.628906 1204.988281 911.800781 1176.96875 883.78125 C 1136.910156 910.480469 1097.511719 936.75 1058.539062 962.359375 C 1011.699219 993.671875 966.164062 1024.308594 921.070312 1054.300781 C 922.605469 1082.761719 909.03125 1112.96875 877.730469 1133.539062 C 846.644531 1154.121094 805.492188 1148.210938 793.453125 1117.128906 C 781.195312 1086.261719 801.332031 1041.390625 831.542969 1020.808594 C 861.53125 1000.230469 888.238281 1002.640625 905.75 1019.058594 C 950.1875 989.070312 995.5 958.421875 1041.691406 927.339844 C 1079.988281 901.511719 1119.179688 875.238281 1158.800781 848.53125 C 1150.921875 808.691406 1170.621094 761.851562 1219.441406 728.359375 C 1268.25 695.078125 1341.800781 705.371094 1361.070312 737.328125 C 1380.328125 769.289062 1373.980469 787.679688 1362.378906 815.261719 C 1401.558594 830.148438 1441.839844 845.691406 1482.988281 861.449219 C 1558.078125 890.558594 1636.878906 920.988281 1719.191406 952.730469 C 1724.21875 954.921875 1729.261719 956.890625 1734.289062 958.640625 C 1734.070312 963.898438 1733.640625 968.929688 1733.421875 973.960938 C 1730.570312 1018.839844 1727.289062 1064.148438 1724.441406 1109.898438 C 1765.378906 1113.839844 1792.519531 1118 1824.039062 1166.601562 C 1855.558594 1214.980469 1833.019531 1318.738281 1754.210938 1359.890625 C 1675.191406 1401.261719 1585 1379.371094 1549.980469 1316.980469 Z M 1390.398438 978.558594 C 1445.339844 971.558594 1518.671875 1016.871094 1512.550781 1086.261719 C 1506.199219 1155.648438 1438.121094 1217.820312 1365.660156 1222.640625 C 1293.210938 1227.449219 1247.671875 1150.621094 1252.050781 1111.21875 C 1256.429688 1071.808594 1257.089844 1085.820312 1262.339844 1073.78125 C 1232.128906 1059.558594 1202.578125 1045.109375 1173.679688 1031.320312 C 1106.039062 1074.660156 1040.148438 1116.691406 975.796875 1157.839844 C 938.144531 1182.359375 900.714844 1206.21875 863.9375 1229.859375 C 865.03125 1238.621094 867.660156 1229.640625 863.5 1258.320312 C 859.121094 1287 820.378906 1346.96875 779.222656 1359.449219 C 772.65625 1401.921875 765.652344 1444.601562 759.085938 1487.730469 C 750.765625 1540.921875 742.230469 1594.769531 733.691406 1648.839844 C 758.429688 1660.21875 773.75 1685.828125 767.839844 1725.238281 C 761.710938 1764.859375 725.15625 1802.730469 689.035156 1800.101562 C 652.699219 1797.261719 631.246094 1756.101562 637.59375 1718.011719 C 643.941406 1679.921875 665.613281 1656.71875 692.757812 1647.53125 C 701.292969 1593.898438 709.832031 1540.921875 718.367188 1488.171875 C 725.375 1445.480469 731.941406 1403.230469 738.726562 1361.199219 C 702.828125 1352.671875 681.15625 1319.390625 689.253906 1270.800781 C 697.355469 1221.980469 753.394531 1171.851562 789.511719 1168.351562 C 825.632812 1164.628906 835.699219 1175.351562 849.273438 1192.648438 C 885.390625 1169.011719 922.605469 1144.929688 960.035156 1120.410156 C 1027.460938 1076.851562 1096.628906 1031.761719 1167.558594 985.789062 C 1171.710938 983.160156 1176.089844 980.308594 1180.25 977.46875 C 1183.96875 979.21875 1187.691406 980.96875 1191.421875 982.71875 C 1224.46875 997.820312 1257.960938 1013.371094 1292.328125 1029.128906 C 1317.71875 1002.421875 1335.449219 985.351562 1390.398438 978.558594 Z M 1265.621094 2295.691406 C 1235.199219 2339.480469 1173.25 2340.351562 1138 2308.171875 C 1102.539062 2275.988281 1095.980469 2234.179688 1107.800781 2195.878906 C 1021.769531 2119.699219 940.773438 2047.898438 864.15625 1980.039062 C 827.382812 2015.058594 778.347656 2020.320312 740.695312 1985.730469 C 703.265625 1950.921875 704.578125 1866.871094 729.972656 1828.558594 C 755.363281 1790.46875 772 1785.871094 797.394531 1781.058594 C 816.21875 1652.78125 835.042969 1527.789062 853.214844 1405.421875 C 854.089844 1400.820312 854.523438 1396.449219 855.183594 1391.851562 C 859.121094 1389.441406 863.28125 1387.25 867.222656 1384.628906 C 901.589844 1363.609375 936.175781 1342.160156 971.421875 1320.488281 C 966.164062 1291.148438 964.414062 1270.359375 993.308594 1226.800781 C 1022.199219 1183.238281 1101.230469 1144.269531 1153.550781 1172.070312 C 1205.648438 1199.648438 1217.679688 1272.769531 1177.191406 1333.179688 C 1136.691406 1393.378906 1042.128906 1402.359375 1012.140625 1383.53125 C 982.363281 1364.699219 994.402344 1369.738281 988.054688 1360.980469 C 956.535156 1380.03125 925.230469 1399.070312 894.367188 1417.898438 C 877.292969 1536.980469 859.5625 1659.128906 841.390625 1784.121094 C 850.367188 1787.191406 843.800781 1779.960938 866.347656 1798.128906 C 888.675781 1816.519531 913.847656 1886.351562 893.710938 1936.039062 C 971.421875 2002.800781 1053.511719 2073.289062 1140.851562 2148.371094 C 1170.839844 2125.609375 1208.488281 2122.320312 1245.269531 2153.191406 C 1282.261719 2184.050781 1296.269531 2251.691406 1265.621094 2295.691406 Z M 1588.941406 2192.148438 C 1604.050781 2259.140625 1577.121094 2324.808594 1510.578125 2350.640625 C 1444.03125 2376.25 1350.558594 2318.898438 1327.351562 2262.421875 C 1304.371094 2206.160156 1312.25 2184.488281 1325.601562 2151.21875 C 1281.378906 2115.320312 1238.480469 2080.511719 1196.890625 2046.371094 C 1125.75 1989.011719 1058.109375 1934.070312 993.089844 1881.308594 C 989.371094 1878.46875 985.648438 1875.621094 981.925781 1872.558594 C 982.585938 1867.300781 983.238281 1862.050781 983.898438 1856.800781 C 989.808594 1811.480469 995.71875 1766.390625 1001.410156 1721.730469 C 971.199219 1712.761719 951.28125 1704 933.988281 1657.820312 C 916.476562 1611.628906 939.460938 1524.5 997.90625 1490.351562 C 1056.570312 1456.421875 1126.621094 1474.589844 1153.328125 1536.109375 C 1180.03125 1597.621094 1125.308594 1691.53125 1087.441406 1711.660156 C 1049.570312 1731.578125 1062.480469 1722.171875 1050.21875 1724.359375 C 1045.191406 1764.199219 1040.148438 1804.480469 1035.121094 1845.410156 C 1097.070312 1894.230469 1162.078125 1945.230469 1229.71875 1998.429688 C 1271.96875 2031.921875 1315.53125 2066.070312 1360.410156 2101.089844 C 1369.820312 2092.988281 1357.558594 2095.839844 1392.371094 2080.511719 C 1427.171875 2065.191406 1519.109375 2076.570312 1559.828125 2129.550781 C 1615.210938 2106.558594 1671.46875 2083.140625 1728.820312 2059.058594 C 1728.820312 2059.058594 1728.820312 2059.058594 1729.039062 2059.28125 C 1800.398438 2029.511719 1873.730469 1999.078125 1948.820312 1968.21875 C 1940.058594 1922.25 1957.351562 1879.558594 2011.640625 1856.359375 C 2065.710938 1833.371094 2149.550781 1854.171875 2185.230469 1911.519531 C 2221.128906 1968.871094 2191.359375 2040.671875 2133.789062 2063 C 2076.441406 2085.328125 2023.238281 2068.261719 1985.148438 2032.140625 C 1908.320312 2062.78125 1833.890625 2092.988281 1761 2122.101562 C 1702.550781 2145.96875 1645.199219 2169.171875 1588.941406 2192.148438 Z M 1414.039062 696.621094 C 1440.53125 657.210938 1496.78125 635.761719 1532.460938 647.140625 C 1568.148438 658.53125 1577.558594 687.640625 1567.050781 720.261719 C 1620.25 737.988281 1674.96875 756.378906 1731.671875 775.199219 C 1731.671875 775.421875 1731.671875 775.421875 1731.671875 775.421875 C 1778.949219 791.621094 1827.980469 807.820312 1878.550781 824.890625 C 1925.171875 779.800781 1993.910156 756.160156 2061.109375 777.171875 C 2128.320312 798.191406 2148.449219 887.941406 2113.648438 937.191406 C 2078.839844 986.441406 2052.140625 995.199219 2011.640625 1006.800781 C 2009.449219 1059.769531 2007.699219 1113.410156 2005.511719 1167.691406 C 2002.011719 1265.320312 1998.511719 1364.488281 1994.789062 1465.621094 C 1994.351562 1471.75 1994.351562 1477.660156 1994.128906 1483.570312 C 1987.558594 1486.628906 1981.429688 1489.921875 1975.300781 1492.980469 C 1921.019531 1519.03125 1868.261719 1544.640625 1816.160156 1570.03125 C 1828.640625 1609.21875 1833.890625 1637.679688 1795.148438 1692.398438 C 1756.398438 1747.128906 1642.351562 1781.488281 1571.871094 1736.839844 C 1501.378906 1692.179688 1486.058594 1605.5 1532.03125 1538.730469 C 1578.210938 1472.191406 1702.328125 1463.871094 1746.328125 1487.289062 C 1790.550781 1510.929688 1774.128906 1505.238281 1784.859375 1516.621094 C 1830.171875 1494.078125 1876.140625 1471.089844 1922.769531 1448.109375 C 1926.929688 1354.640625 1930.871094 1262.480469 1934.808594 1172.511719 C 1937 1119.101562 1939.398438 1066.339844 1941.808594 1013.800781 C 1928.238281 1012.488281 1937.648438 1018.179688 1902.410156 1004.828125 C 1867.378906 991.261719 1822.289062 928.210938 1843.519531 875.238281 C 1793.828125 857.730469 1745.460938 840.648438 1698.390625 824.019531 C 1698.171875 824.019531 1698.171875 824.019531 1698.171875 824.019531 C 1642.351562 804.53125 1588.070312 785.488281 1535.75 766.878906 C 1506.199219 792.929688 1468.550781 805.628906 1434.179688 792.710938 C 1400.03125 779.800781 1387.769531 736.019531 1414.039062 696.621094 Z M 2228.789062 1141.210938 C 2227.921875 1211.25 2227.039062 1281.960938 2225.949219 1353.539062 C 2225.070312 1413.300781 2224.410156 1473.941406 2223.320312 1535.011719 C 2303.21875 1551.429688 2364.511719 1605.28125 2364.511719 1684.078125 C 2364.511719 1763.109375 2254.179688 1832.28125 2177.789062 1827.03125 C 2101.609375 1821.769531 2082.128906 1802.511719 2051.261719 1771.859375 C 1988.660156 1799.230469 1927.359375 1825.929688 1867.171875 1851.980469 C 1763.191406 1897.511719 1662.929688 1941.730469 1565.738281 1984.199219 C 1560.269531 1986.820312 1554.789062 1989.230469 1549.320312 1991.859375 C 1544.070312 1988.140625 1538.808594 1984.421875 1534 1980.691406 C 1489.78125 1949.390625 1447.089844 1918.960938 1405.28125 1889.410156 C 1376.171875 1916.78125 1353.179688 1933.410156 1294.960938 1927.5 C 1236.949219 1921.589844 1168.429688 1851.320312 1176.96875 1776.238281 C 1185.289062 1701.160156 1247.890625 1644.019531 1322.761719 1646.429688 C 1397.621094 1649.058594 1455.191406 1746.910156 1451.03125 1794.628906 C 1446.871094 1842.351562 1446 1825.488281 1439.871094 1839.5 C 1477.078125 1865.550781 1515.390625 1891.820312 1554.359375 1918.738281 C 1644.539062 1878.03125 1737.578125 1836 1833.460938 1792.878906 C 1892.558594 1766.609375 1953.191406 1739.46875 2014.921875 1711.878906 C 2010.550781 1698.75 2007.921875 1711.230469 2009.230469 1670.289062 C 2010.550781 1629.359375 2067.460938 1548.148438 2142.761719 1534.140625 C 2144.078125 1473.941406 2145.390625 1414.398438 2146.699219 1355.511719 C 2148.238281 1285.019531 2149.769531 1215.191406 2151.300781 1146.460938 C 2104.019531 1136.828125 2070.75 1108.808594 2072.058594 1062.398438 C 2073.589844 1015.78125 2126.558594 964.550781 2193.328125 957.550781 C 2260.308594 950.539062 2316.789062 992.789062 2316.570312 1041.609375 C 2316.351562 1090.199219 2279.359375 1124.789062 2228.789062 1141.210938 Z M 2228.789062 1141.210938 "/>
</clipPath>
<clipPath id="clip-2">
<path clip-rule="nonzero" d="M 1549.980469 1316.980469 C 1515.171875 1254.601562 1574.488281 1158.058594 1617.621094 1133.328125 C 1660.519531 1108.589844 1646.730469 1119.101562 1662.050781 1115.160156 C 1664.898438 1075.101562 1667.75 1035.480469 1670.808594 996.070312 C 1594.410156 965.429688 1521.738281 935.878906 1451.691406 907.640625 C 1451.46875 907.640625 1451.46875 907.640625 1451.46875 907.640625 C 1410.761719 891.441406 1371.351562 875.460938 1332.609375 859.921875 C 1324.511719 868.019531 1334.140625 863.640625 1305.25 882.03125 C 1276.570312 900.628906 1204.988281 911.800781 1176.96875 883.78125 C 1136.910156 910.480469 1097.511719 936.75 1058.539062 962.359375 C 1011.699219 993.671875 966.164062 1024.308594 921.070312 1054.300781 C 922.605469 1082.761719 909.03125 1112.96875 877.730469 1133.539062 C 846.644531 1154.121094 805.492188 1148.210938 793.453125 1117.128906 C 781.195312 1086.261719 801.332031 1041.390625 831.542969 1020.808594 C 861.53125 1000.230469 888.238281 1002.640625 905.75 1019.058594 C 950.1875 989.070312 995.5 958.421875 1041.691406 927.339844 C 1079.988281 901.511719 1119.179688 875.238281 1158.800781 848.53125 C 1150.921875 808.691406 1170.621094 761.851562 1219.441406 728.359375 C 1268.25 695.078125 1341.800781 705.371094 1361.070312 737.328125 C 1380.328125 769.289062 1373.980469 787.679688 1362.378906 815.261719 C 1401.558594 830.148438 1441.839844 845.691406 1482.988281 861.449219 C 1558.078125 890.558594 1636.878906 920.988281 1719.191406 952.730469 C 1724.21875 954.921875 1729.261719 956.890625 1734.289062 958.640625 C 1734.070312 963.898438 1733.640625 968.929688 1733.421875 973.960938 C 1730.570312 1018.839844 1727.289062 1064.148438 1724.441406 1109.898438 C 1765.378906 1113.839844 1792.519531 1118 1824.039062 1166.601562 C 1855.558594 1214.980469 1833.019531 1318.738281 1754.210938 1359.890625 C 1675.191406 1401.261719 1585 1379.371094 1549.980469 1316.980469 Z M 1390.398438 978.558594 C 1445.339844 971.558594 1518.671875 1016.871094 1512.550781 1086.261719 C 1506.199219 1155.648438 1438.121094 1217.820312 1365.660156 1222.640625 C 1293.210938 1227.449219 1247.671875 1150.621094 1252.050781 1111.21875 C 1256.429688 1071.808594 1257.089844 1085.820312 1262.339844 1073.78125 C 1232.128906 1059.558594 1202.578125 1045.109375 1173.679688 1031.320312 C 1106.039062 1074.660156 1040.148438 1116.691406 975.796875 1157.839844 C 938.144531 1182.359375 900.714844 1206.21875 863.9375 1229.859375 C 865.03125 1238.621094 867.660156 1229.640625 863.5 1258.320312 C 859.121094 1287 820.378906 1346.96875 779.222656 1359.449219 C 772.65625 1401.921875 765.652344 1444.601562 759.085938 1487.730469 C 750.765625 1540.921875 742.230469 1594.769531 733.691406 1648.839844 C 758.429688 1660.21875 773.75 1685.828125 767.839844 1725.238281 C 761.710938 1764.859375 725.15625 1802.730469 689.035156 1800.101562 C 652.699219 1797.261719 631.246094 1756.101562 637.59375 1718.011719 C 643.941406 1679.921875 665.613281 1656.71875 692.757812 1647.53125 C 701.292969 1593.898438 709.832031 1540.921875 718.367188 1488.171875 C 725.375 1445.480469 731.941406 1403.230469 738.726562 1361.199219 C 702.828125 1352.671875 681.15625 1319.390625 689.253906 1270.800781 C 697.355469 1221.980469 753.394531 1171.851562 789.511719 1168.351562 C 825.632812 1164.628906 835.699219 1175.351562 849.273438 1192.648438 C 885.390625 1169.011719 922.605469 1144.929688 960.035156 1120.410156 C 1027.460938 1076.851562 1096.628906 1031.761719 1167.558594 985.789062 C 1171.710938 983.160156 1176.089844 980.308594 1180.25 977.46875 C 1183.96875 979.21875 1187.691406 980.96875 1191.421875 982.71875 C 1224.46875 997.820312 1257.960938 1013.371094 1292.328125 1029.128906 C 1317.71875 1002.421875 1335.449219 985.351562 1390.398438 978.558594 Z M 1265.621094 2295.691406 C 1235.199219 2339.480469 1173.25 2340.351562 1138 2308.171875 C 1102.539062 2275.988281 1095.980469 2234.179688 1107.800781 2195.878906 C 1021.769531 2119.699219 940.773438 2047.898438 864.15625 1980.039062 C 827.382812 2015.058594 778.347656 2020.320312 740.695312 1985.730469 C 703.265625 1950.921875 704.578125 1866.871094 729.972656 1828.558594 C 755.363281 1790.46875 772 1785.871094 797.394531 1781.058594 C 816.21875 1652.78125 835.042969 1527.789062 853.214844 1405.421875 C 854.089844 1400.820312 854.523438 1396.449219 855.183594 1391.851562 C 859.121094 1389.441406 863.28125 1387.25 867.222656 1384.628906 C 901.589844 1363.609375 936.175781 1342.160156 971.421875 1320.488281 C 966.164062 1291.148438 964.414062 1270.359375 993.308594 1226.800781 C 1022.199219 1183.238281 1101.230469 1144.269531 1153.550781 1172.070312 C 1205.648438 1199.648438 1217.679688 1272.769531 1177.191406 1333.179688 C 1136.691406 1393.378906 1042.128906 1402.359375 1012.140625 1383.53125 C 982.363281 1364.699219 994.402344 1369.738281 988.054688 1360.980469 C 956.535156 1380.03125 925.230469 1399.070312 894.367188 1417.898438 C 877.292969 1536.980469 859.5625 1659.128906 841.390625 1784.121094 C 850.367188 1787.191406 843.800781 1779.960938 866.347656 1798.128906 C 888.675781 1816.519531 913.847656 1886.351562 893.710938 1936.039062 C 971.421875 2002.800781 1053.511719 2073.289062 1140.851562 2148.371094 C 1170.839844 2125.609375 1208.488281 2122.320312 1245.269531 2153.191406 C 1282.261719 2184.050781 1296.269531 2251.691406 1265.621094 2295.691406 Z M 1588.941406 2192.148438 C 1604.050781 2259.140625 1577.121094 2324.808594 1510.578125 2350.640625 C 1444.03125 2376.25 1350.558594 2318.898438 1327.351562 2262.421875 C 1304.371094 2206.160156 1312.25 2184.488281 1325.601562 2151.21875 C 1281.378906 2115.320312 1238.480469 2080.511719 1196.890625 2046.371094 C 1125.75 1989.011719 1058.109375 1934.070312 993.089844 1881.308594 C 989.371094 1878.46875 985.648438 1875.621094 981.925781 1872.558594 C 982.585938 1867.300781 983.238281 1862.050781 983.898438 1856.800781 C 989.808594 1811.480469 995.71875 1766.390625 1001.410156 1721.730469 C 971.199219 1712.761719 951.28125 1704 933.988281 1657.820312 C 916.476562 1611.628906 939.460938 1524.5 997.90625 1490.351562 C 1056.570312 1456.421875 1126.621094 1474.589844 1153.328125 1536.109375 C 1180.03125 1597.621094 1125.308594 1691.53125 1087.441406 1711.660156 C 1049.570312 1731.578125 1062.480469 1722.171875 1050.21875 1724.359375 C 1045.191406 1764.199219 1040.148438 1804.480469 1035.121094 1845.410156 C 1097.070312 1894.230469 1162.078125 1945.230469 1229.71875 1998.429688 C 1271.96875 2031.921875 1315.53125 2066.070312 1360.410156 2101.089844 C 1369.820312 2092.988281 1357.558594 2095.839844 1392.371094 2080.511719 C 1427.171875 2065.191406 1519.109375 2076.570312 1559.828125 2129.550781 C 1615.210938 2106.558594 1671.46875 2083.140625 1728.820312 2059.058594 C 1728.820312 2059.058594 1728.820312 2059.058594 1729.039062 2059.28125 C 1800.398438 2029.511719 1873.730469 1999.078125 1948.820312 1968.21875 C 1940.058594 1922.25 1957.351562 1879.558594 2011.640625 1856.359375 C 2065.710938 1833.371094 2149.550781 1854.171875 2185.230469 1911.519531 C 2221.128906 1968.871094 2191.359375 2040.671875 2133.789062 2063 C 2076.441406 2085.328125 2023.238281 2068.261719 1985.148438 2032.140625 C 1908.320312 2062.78125 1833.890625 2092.988281 1761 2122.101562 C 1702.550781 2145.96875 1645.199219 2169.171875 1588.941406 2192.148438 Z M 1414.039062 696.621094 C 1440.53125 657.210938 1496.78125 635.761719 1532.460938 647.140625 C 1568.148438 658.53125 1577.558594 687.640625 1567.050781 720.261719 C 1620.25 737.988281 1674.96875 756.378906 1731.671875 775.199219 C 1731.671875 775.421875 1731.671875 775.421875 1731.671875 775.421875 C 1778.949219 791.621094 1827.980469 807.820312 1878.550781 824.890625 C 1925.171875 779.800781 1993.910156 756.160156 2061.109375 777.171875 C 2128.320312 798.191406 2148.449219 887.941406 2113.648438 937.191406 C 2078.839844 986.441406 2052.140625 995.199219 2011.640625 1006.800781 C 2009.449219 1059.769531 2007.699219 1113.410156 2005.511719 1167.691406 C 2002.011719 1265.320312 1998.511719 1364.488281 1994.789062 1465.621094 C 1994.351562 1471.75 1994.351562 1477.660156 1994.128906 1483.570312 C 1987.558594 1486.628906 1981.429688 1489.921875 1975.300781 1492.980469 C 1921.019531 1519.03125 1868.261719 1544.640625 1816.160156 1570.03125 C 1828.640625 1609.21875 1833.890625 1637.679688 1795.148438 1692.398438 C 1756.398438 1747.128906 1642.351562 1781.488281 1571.871094 1736.839844 C 1501.378906 1692.179688 1486.058594 1605.5 1532.03125 1538.730469 C 1578.210938 1472.191406 1702.328125 1463.871094 1746.328125 1487.289062 C 1790.550781 1510.929688 1774.128906 1505.238281 1784.859375 1516.621094 C 1830.171875 1494.078125 1876.140625 1471.089844 1922.769531 1448.109375 C 1926.929688 1354.640625 1930.871094 1262.480469 1934.808594 1172.511719 C 1937 1119.101562 1939.398438 1066.339844 1941.808594 1013.800781 C 1928.238281 1012.488281 1937.648438 1018.179688 1902.410156 1004.828125 C 1867.378906 991.261719 1822.289062 928.210938 1843.519531 875.238281 C 1793.828125 857.730469 1745.460938 840.648438 1698.390625 824.019531 C 1698.171875 824.019531 1698.171875 824.019531 1698.171875 824.019531 C 1642.351562 804.53125 1588.070312 785.488281 1535.75 766.878906 C 1506.199219 792.929688 1468.550781 805.628906 1434.179688 792.710938 C 1400.03125 779.800781 1387.769531 736.019531 1414.039062 696.621094 Z M 2228.789062 1141.210938 C 2227.921875 1211.25 2227.039062 1281.960938 2225.949219 1353.539062 C 2225.070312 1413.300781 2224.410156 1473.941406 2223.320312 1535.011719 C 2303.21875 1551.429688 2364.511719 1605.28125 2364.511719 1684.078125 C 2364.511719 1763.109375 2254.179688 1832.28125 2177.789062 1827.03125 C 2101.609375 1821.769531 2082.128906 1802.511719 2051.261719 1771.859375 C 1988.660156 1799.230469 1927.359375 1825.929688 1867.171875 1851.980469 C 1763.191406 1897.511719 1662.929688 1941.730469 1565.738281 1984.199219 C 1560.269531 1986.820312 1554.789062 1989.230469 1549.320312 1991.859375 C 1544.070312 1988.140625 1538.808594 1984.421875 1534 1980.691406 C 1489.78125 1949.390625 1447.089844 1918.960938 1405.28125 1889.410156 C 1376.171875 1916.78125 1353.179688 1933.410156 1294.960938 1927.5 C 1236.949219 1921.589844 1168.429688 1851.320312 1176.96875 1776.238281 C 1185.289062 1701.160156 1247.890625 1644.019531 1322.761719 1646.429688 C 1397.621094 1649.058594 1455.191406 1746.910156 1451.03125 1794.628906 C 1446.871094 1842.351562 1446 1825.488281 1439.871094 1839.5 C 1477.078125 1865.550781 1515.390625 1891.820312 1554.359375 1918.738281 C 1644.539062 1878.03125 1737.578125 1836 1833.460938 1792.878906 C 1892.558594 1766.609375 1953.191406 1739.46875 2014.921875 1711.878906 C 2010.550781 1698.75 2007.921875 1711.230469 2009.230469 1670.289062 C 2010.550781 1629.359375 2067.460938 1548.148438 2142.761719 1534.140625 C 2144.078125 1473.941406 2145.390625 1414.398438 2146.699219 1355.511719 C 2148.238281 1285.019531 2149.769531 1215.191406 2151.300781 1146.460938 C 2104.019531 1136.828125 2070.75 1108.808594 2072.058594 1062.398438 C 2073.589844 1015.78125 2126.558594 964.550781 2193.328125 957.550781 C 2260.308594 950.539062 2316.789062 992.789062 2316.570312 1041.609375 C 2316.351562 1090.199219 2279.359375 1124.789062 2228.789062 1141.210938 "/>
</clipPath>
<linearGradient id="linear-pattern-0" gradientUnits="userSpaceOnUse" x1="-0.516525" y1="0" x2="1.508719" y2="0" gradientTransform="matrix(-380.138, -1034.24, -1034.24, 380.138, 1705.83, 2011.97)">
<stop offset="0" stop-color="rgb(54.508972%, 0%, 97.647095%)" stop-opacity="1"/>
<stop offset="0.25" stop-color="rgb(54.508972%, 0%, 97.647095%)" stop-opacity="1"/>
<stop offset="0.253906" stop-color="rgb(54.289246%, 0.187683%, 97.651672%)" stop-opacity="1"/>
<stop offset="0.257812" stop-color="rgb(54.071045%, 0.375366%, 97.65625%)" stop-opacity="1"/>
<stop offset="0.261719" stop-color="rgb(53.453064%, 0.904846%, 97.669983%)" stop-opacity="1"/>
<stop offset="0.265625" stop-color="rgb(52.836609%, 1.435852%, 97.683716%)" stop-opacity="1"/>
<stop offset="0.269531" stop-color="rgb(52.218628%, 1.966858%, 97.697449%)" stop-opacity="1"/>
<stop offset="0.273438" stop-color="rgb(51.602173%, 2.497864%, 97.711182%)" stop-opacity="1"/>
<stop offset="0.277344" stop-color="rgb(50.984192%, 3.027344%, 97.724915%)" stop-opacity="1"/>
<stop offset="0.28125" stop-color="rgb(50.367737%, 3.55835%, 97.738647%)" stop-opacity="1"/>
<stop offset="0.285156" stop-color="rgb(49.749756%, 4.08783%, 97.75238%)" stop-opacity="1"/>
<stop offset="0.289062" stop-color="rgb(49.133301%, 4.618835%, 97.766113%)" stop-opacity="1"/>
<stop offset="0.292969" stop-color="rgb(48.51532%, 5.148315%, 97.779846%)" stop-opacity="1"/>
<stop offset="0.296875" stop-color="rgb(47.897339%, 5.679321%, 97.793579%)" stop-opacity="1"/>
<stop offset="0.300781" stop-color="rgb(47.279358%, 6.210327%, 97.807312%)" stop-opacity="1"/>
<stop offset="0.304688" stop-color="rgb(46.662903%, 6.741333%, 97.821045%)" stop-opacity="1"/>
<stop offset="0.308594" stop-color="rgb(46.044922%, 7.270813%, 97.834778%)" stop-opacity="1"/>
<stop offset="0.3125" stop-color="rgb(45.428467%, 7.801819%, 97.848511%)" stop-opacity="1"/>
<stop offset="0.316406" stop-color="rgb(44.810486%, 8.331299%, 97.862244%)" stop-opacity="1"/>
<stop offset="0.320312" stop-color="rgb(44.194031%, 8.862305%, 97.875977%)" stop-opacity="1"/>
<stop offset="0.324219" stop-color="rgb(43.57605%, 9.391785%, 97.889709%)" stop-opacity="1"/>
<stop offset="0.328125" stop-color="rgb(42.959595%, 9.922791%, 97.903442%)" stop-opacity="1"/>
<stop offset="0.332031" stop-color="rgb(42.341614%, 10.453796%, 97.917175%)" stop-opacity="1"/>
<stop offset="0.335938" stop-color="rgb(41.725159%, 10.984802%, 97.930908%)" stop-opacity="1"/>
<stop offset="0.339844" stop-color="rgb(41.107178%, 11.514282%, 97.944641%)" stop-opacity="1"/>
<stop offset="0.34375" stop-color="rgb(40.489197%, 12.045288%, 97.958374%)" stop-opacity="1"/>
<stop offset="0.347656" stop-color="rgb(39.871216%, 12.574768%, 97.972107%)" stop-opacity="1"/>
<stop offset="0.351562" stop-color="rgb(39.254761%, 13.105774%, 97.98584%)" stop-opacity="1"/>
<stop offset="0.355469" stop-color="rgb(38.63678%, 13.63678%, 97.999573%)" stop-opacity="1"/>
<stop offset="0.359375" stop-color="rgb(38.020325%, 14.167786%, 98.013306%)" stop-opacity="1"/>
<stop offset="0.363281" stop-color="rgb(37.402344%, 14.697266%, 98.027039%)" stop-opacity="1"/>
<stop offset="0.367188" stop-color="rgb(36.785889%, 15.228271%, 98.040771%)" stop-opacity="1"/>
<stop offset="0.371094" stop-color="rgb(36.167908%, 15.757751%, 98.054504%)" stop-opacity="1"/>
<stop offset="0.375" stop-color="rgb(35.551453%, 16.288757%, 98.068237%)" stop-opacity="1"/>
<stop offset="0.378906" stop-color="rgb(34.933472%, 16.818237%, 98.08197%)" stop-opacity="1"/>
<stop offset="0.382812" stop-color="rgb(34.317017%, 17.349243%, 98.095703%)" stop-opacity="1"/>
<stop offset="0.386719" stop-color="rgb(33.699036%, 17.880249%, 98.109436%)" stop-opacity="1"/>
<stop offset="0.390625" stop-color="rgb(33.081055%, 18.411255%, 98.123169%)" stop-opacity="1"/>
<stop offset="0.394531" stop-color="rgb(32.463074%, 18.940735%, 98.136902%)" stop-opacity="1"/>
<stop offset="0.398438" stop-color="rgb(31.846619%, 19.471741%, 98.150635%)" stop-opacity="1"/>
<stop offset="0.402344" stop-color="rgb(31.228638%, 20.001221%, 98.164368%)" stop-opacity="1"/>
<stop offset="0.40625" stop-color="rgb(30.612183%, 20.532227%, 98.178101%)" stop-opacity="1"/>
<stop offset="0.410156" stop-color="rgb(29.994202%, 21.063232%, 98.190308%)" stop-opacity="1"/>
<stop offset="0.414062" stop-color="rgb(29.377747%, 21.594238%, 98.204041%)" stop-opacity="1"/>
<stop offset="0.417969" stop-color="rgb(28.759766%, 22.123718%, 98.217773%)" stop-opacity="1"/>
<stop offset="0.421875" stop-color="rgb(28.143311%, 22.654724%, 98.231506%)" stop-opacity="1"/>
<stop offset="0.425781" stop-color="rgb(27.52533%, 23.184204%, 98.245239%)" stop-opacity="1"/>
<stop offset="0.429688" stop-color="rgb(26.908875%, 23.71521%, 98.258972%)" stop-opacity="1"/>
<stop offset="0.433594" stop-color="rgb(26.290894%, 24.24469%, 98.272705%)" stop-opacity="1"/>
<stop offset="0.4375" stop-color="rgb(25.674438%, 24.775696%, 98.286438%)" stop-opacity="1"/>
<stop offset="0.441406" stop-color="rgb(25.056458%, 25.306702%, 98.300171%)" stop-opacity="1"/>
<stop offset="0.445312" stop-color="rgb(24.438477%, 25.837708%, 98.313904%)" stop-opacity="1"/>
<stop offset="0.449219" stop-color="rgb(23.820496%, 26.367188%, 98.327637%)" stop-opacity="1"/>
<stop offset="0.453125" stop-color="rgb(23.204041%, 26.898193%, 98.34137%)" stop-opacity="1"/>
<stop offset="0.457031" stop-color="rgb(22.58606%, 27.427673%, 98.355103%)" stop-opacity="1"/>
<stop offset="0.460938" stop-color="rgb(21.969604%, 27.958679%, 98.368835%)" stop-opacity="1"/>
<stop offset="0.464844" stop-color="rgb(21.351624%, 28.488159%, 98.382568%)" stop-opacity="1"/>
<stop offset="0.46875" stop-color="rgb(20.735168%, 29.019165%, 98.396301%)" stop-opacity="1"/>
<stop offset="0.472656" stop-color="rgb(20.117188%, 29.550171%, 98.410034%)" stop-opacity="1"/>
<stop offset="0.476562" stop-color="rgb(19.500732%, 30.081177%, 98.423767%)" stop-opacity="1"/>
<stop offset="0.480469" stop-color="rgb(18.882751%, 30.610657%, 98.4375%)" stop-opacity="1"/>
<stop offset="0.484375" stop-color="rgb(18.266296%, 31.141663%, 98.451233%)" stop-opacity="1"/>
<stop offset="0.488281" stop-color="rgb(17.648315%, 31.671143%, 98.464966%)" stop-opacity="1"/>
<stop offset="0.492188" stop-color="rgb(17.030334%, 32.202148%, 98.478699%)" stop-opacity="1"/>
<stop offset="0.496094" stop-color="rgb(16.412354%, 32.733154%, 98.492432%)" stop-opacity="1"/>
<stop offset="0.5" stop-color="rgb(15.795898%, 33.26416%, 98.506165%)" stop-opacity="1"/>
<stop offset="0.503906" stop-color="rgb(15.177917%, 33.79364%, 98.519897%)" stop-opacity="1"/>
<stop offset="0.507812" stop-color="rgb(14.561462%, 34.324646%, 98.53363%)" stop-opacity="1"/>
<stop offset="0.511719" stop-color="rgb(13.943481%, 34.854126%, 98.547363%)" stop-opacity="1"/>
<stop offset="0.515625" stop-color="rgb(13.327026%, 35.385132%, 98.561096%)" stop-opacity="1"/>
<stop offset="0.519531" stop-color="rgb(12.709045%, 35.914612%, 98.574829%)" stop-opacity="1"/>
<stop offset="0.523438" stop-color="rgb(12.09259%, 36.445618%, 98.588562%)" stop-opacity="1"/>
<stop offset="0.527344" stop-color="rgb(11.474609%, 36.976624%, 98.602295%)" stop-opacity="1"/>
<stop offset="0.53125" stop-color="rgb(10.858154%, 37.507629%, 98.616028%)" stop-opacity="1"/>
<stop offset="0.535156" stop-color="rgb(10.240173%, 38.037109%, 98.629761%)" stop-opacity="1"/>
<stop offset="0.539062" stop-color="rgb(9.622192%, 38.568115%, 98.643494%)" stop-opacity="1"/>
<stop offset="0.542969" stop-color="rgb(9.004211%, 39.097595%, 98.657227%)" stop-opacity="1"/>
<stop offset="0.546875" stop-color="rgb(8.387756%, 39.628601%, 98.670959%)" stop-opacity="1"/>
<stop offset="0.550781" stop-color="rgb(7.769775%, 40.159607%, 98.684692%)" stop-opacity="1"/>
<stop offset="0.554688" stop-color="rgb(7.15332%, 40.690613%, 98.698425%)" stop-opacity="1"/>
<stop offset="0.558594" stop-color="rgb(6.535339%, 41.220093%, 98.712158%)" stop-opacity="1"/>
<stop offset="0.5625" stop-color="rgb(5.918884%, 41.751099%, 98.725891%)" stop-opacity="1"/>
<stop offset="0.566406" stop-color="rgb(5.300903%, 42.280579%, 98.739624%)" stop-opacity="1"/>
<stop offset="0.570312" stop-color="rgb(4.684448%, 42.811584%, 98.753357%)" stop-opacity="1"/>
<stop offset="0.574219" stop-color="rgb(4.066467%, 43.341064%, 98.76709%)" stop-opacity="1"/>
<stop offset="0.578125" stop-color="rgb(3.450012%, 43.87207%, 98.780823%)" stop-opacity="1"/>
<stop offset="0.582031" stop-color="rgb(2.832031%, 44.403076%, 98.794556%)" stop-opacity="1"/>
<stop offset="0.585938" stop-color="rgb(2.21405%, 44.934082%, 98.808289%)" stop-opacity="1"/>
<stop offset="0.589844" stop-color="rgb(1.899719%, 45.541382%, 98.809814%)" stop-opacity="1"/>
<stop offset="0.59375" stop-color="rgb(1.586914%, 46.150208%, 98.812866%)" stop-opacity="1"/>
<stop offset="0.597656" stop-color="rgb(1.605225%, 46.844482%, 98.803711%)" stop-opacity="1"/>
<stop offset="0.601562" stop-color="rgb(1.625061%, 47.540283%, 98.794556%)" stop-opacity="1"/>
<stop offset="0.605469" stop-color="rgb(1.643372%, 48.234558%, 98.783875%)" stop-opacity="1"/>
<stop offset="0.609375" stop-color="rgb(1.663208%, 48.928833%, 98.774719%)" stop-opacity="1"/>
<stop offset="0.613281" stop-color="rgb(1.681519%, 49.623108%, 98.765564%)" stop-opacity="1"/>
<stop offset="0.617188" stop-color="rgb(1.701355%, 50.318909%, 98.756409%)" stop-opacity="1"/>
<stop offset="0.621094" stop-color="rgb(1.721191%, 51.013184%, 98.745728%)" stop-opacity="1"/>
<stop offset="0.625" stop-color="rgb(1.741028%, 51.707458%, 98.736572%)" stop-opacity="1"/>
<stop offset="0.628906" stop-color="rgb(1.759338%, 52.401733%, 98.725891%)" stop-opacity="1"/>
<stop offset="0.632812" stop-color="rgb(1.779175%, 53.097534%, 98.716736%)" stop-opacity="1"/>
<stop offset="0.636719" stop-color="rgb(1.797485%, 53.791809%, 98.707581%)" stop-opacity="1"/>
<stop offset="0.640625" stop-color="rgb(1.817322%, 54.486084%, 98.698425%)" stop-opacity="1"/>
<stop offset="0.644531" stop-color="rgb(1.837158%, 55.180359%, 98.687744%)" stop-opacity="1"/>
<stop offset="0.648438" stop-color="rgb(1.856995%, 55.87616%, 98.678589%)" stop-opacity="1"/>
<stop offset="0.652344" stop-color="rgb(1.875305%, 56.570435%, 98.667908%)" stop-opacity="1"/>
<stop offset="0.65625" stop-color="rgb(1.895142%, 57.264709%, 98.658752%)" stop-opacity="1"/>
<stop offset="0.660156" stop-color="rgb(1.913452%, 57.958984%, 98.649597%)" stop-opacity="1"/>
<stop offset="0.664062" stop-color="rgb(1.933289%, 58.654785%, 98.640442%)" stop-opacity="1"/>
<stop offset="0.667969" stop-color="rgb(1.951599%, 59.34906%, 98.629761%)" stop-opacity="1"/>
<stop offset="0.671875" stop-color="rgb(1.971436%, 60.043335%, 98.620605%)" stop-opacity="1"/>
<stop offset="0.675781" stop-color="rgb(1.991272%, 60.73761%, 98.609924%)" stop-opacity="1"/>
<stop offset="0.679688" stop-color="rgb(2.011108%, 61.433411%, 98.600769%)" stop-opacity="1"/>
<stop offset="0.683594" stop-color="rgb(2.029419%, 62.127686%, 98.591614%)" stop-opacity="1"/>
<stop offset="0.6875" stop-color="rgb(2.049255%, 62.82196%, 98.582458%)" stop-opacity="1"/>
<stop offset="0.691406" stop-color="rgb(2.067566%, 63.516235%, 98.571777%)" stop-opacity="1"/>
<stop offset="0.695312" stop-color="rgb(2.087402%, 64.212036%, 98.562622%)" stop-opacity="1"/>
<stop offset="0.699219" stop-color="rgb(2.107239%, 64.906311%, 98.551941%)" stop-opacity="1"/>
<stop offset="0.703125" stop-color="rgb(2.127075%, 65.600586%, 98.542786%)" stop-opacity="1"/>
<stop offset="0.707031" stop-color="rgb(2.145386%, 66.294861%, 98.53363%)" stop-opacity="1"/>
<stop offset="0.710938" stop-color="rgb(2.165222%, 66.989136%, 98.524475%)" stop-opacity="1"/>
<stop offset="0.714844" stop-color="rgb(2.183533%, 67.683411%, 98.513794%)" stop-opacity="1"/>
<stop offset="0.71875" stop-color="rgb(2.203369%, 68.379211%, 98.504639%)" stop-opacity="1"/>
<stop offset="0.722656" stop-color="rgb(2.22168%, 69.073486%, 98.495483%)" stop-opacity="1"/>
<stop offset="0.726562" stop-color="rgb(2.241516%, 69.767761%, 98.486328%)" stop-opacity="1"/>
<stop offset="0.730469" stop-color="rgb(2.261353%, 70.462036%, 98.475647%)" stop-opacity="1"/>
<stop offset="0.734375" stop-color="rgb(2.281189%, 71.157837%, 98.466492%)" stop-opacity="1"/>
<stop offset="0.738281" stop-color="rgb(2.2995%, 71.852112%, 98.455811%)" stop-opacity="1"/>
<stop offset="0.742188" stop-color="rgb(2.319336%, 72.546387%, 98.446655%)" stop-opacity="1"/>
<stop offset="0.746094" stop-color="rgb(2.336121%, 73.135376%, 98.439026%)" stop-opacity="1"/>
<stop offset="0.75" stop-color="rgb(2.352905%, 73.724365%, 98.431396%)" stop-opacity="1"/>
<stop offset="1" stop-color="rgb(2.352905%, 73.724365%, 98.431396%)" stop-opacity="1"/>
</linearGradient>
</defs>
<path fill-rule="nonzero" fill="rgb(100%, 100%, 100%)" fill-opacity="1" d="M 3000.5 3000.5 L 0.5 3000.5 L 0.5 0.5 L 3000.5 0.5 L 3000.5 3000.5 "/>
<path fill="none" stroke-width="10" stroke-linecap="butt" stroke-linejoin="miter" stroke="rgb(0%, 0%, 0%)" stroke-opacity="1" stroke-miterlimit="10" d="M 30005 5 L 5 5 L 5 30005 L 30005 30005 Z M 30005 5 " transform="matrix(0.1, 0, 0, -0.1, 0, 3001)"/>
<g clip-path="url(#clip-0)">
<g clip-path="url(#clip-1)">
<g clip-path="url(#clip-2)">
<path fill-rule="nonzero" fill="url(#linear-pattern-0)" d="M 2928.09375 2169.101562 L 837.535156 2937.496094 L 67.660156 842.90625 L 2158.222656 74.515625 Z M 2928.09375 2169.101562 "/>
</g>
</g>
</g>
</svg>
